<?xml version="1.0" encoding="UTF-8"?>
<svg id="Layer_1" data-name="Layer 1" xmlns="http://www.w3.org/2000/svg" viewBox="0 0 95.66 92.12">
  <defs>
    <style>
      .cls-1 {
        fill: #fff;
      }
    </style>
  </defs>
  <path class="cls-1" d="m89.81,41.42c-9.13,0-17.6,0-26.07,0-1.5,0-3,.05-4.49,0-6-.21-11.1,5.45-10.61,10.82.24,2.64,0,5.32.05,7.99.15,6.54,4.34,10.85,10.98,11,6.82.16,13.65.04,20.47.04,2.99,0,5.97,0,8.89,0,.66,2.46,1.16,14.72.65,16.45-.54,1.84-1.53,3.4-3.57,3.77-1.78.33-3.61.59-5.42.59-23.8.04-47.61.03-71.41.02-1,0-2.01.06-2.99-.04-4.02-.42-5.94-2.4-6.25-6.4-.09-1.16-.02-2.33-.02-3.49,0-17.14,0-34.29,0-51.43,0-1.17-.07-2.34.02-3.49.32-4.16,2.11-5.89,6.33-5.96,4.16-.07,8.32-.02,12.48-.02,20.64,0,41.28,0,61.92,0,1.17,0,2.33-.05,3.49.02,3.47.2,5.35,1.78,5.48,5.14.19,4.79.05,9.6.05,15.01Z"/>
  <path class="cls-1" d="m73.91,45.22c5.16,0,10.31-.05,15.47.02,3.7.05,5.76,1.62,6.05,5.15.32,3.97.31,7.99.03,11.96-.26,3.67-2.47,5.63-6.32,5.68-10.14.13-20.29.14-30.44,0-3.97-.06-5.75-1.97-5.9-5.9-.14-3.82-.15-7.65,0-11.47.16-3.79,1.8-5.33,5.64-5.41,5.15-.1,10.31-.02,15.47-.03Zm-8.21,15.14c1.94-.05,3.78-1.93,3.81-3.86.02-1.99-2.31-4.15-4.28-3.95-1.89.18-3.54,2.19-3.42,4.16.13,2.09,1.86,3.71,3.9,3.65Z"/>
  <path class="cls-1" d="m60.01,7.17c-10.35,2.9-20.36,5.71-30.38,8.49-2.38.66-4.77,1.34-7.19,1.81-1.08.21-2.25-.09-4.16-.2,1.63-.94,2.57-1.55,3.57-2.05,9.02-4.54,18.03-9.09,27.07-13.6,6.19-3.09,8.43-2.05,11.09,5.55Z"/>
  <path class="cls-1" d="m78.76,17.31h-40.33c-.04-.17-.08-.34-.13-.51,4.6-1.3,9.19-2.59,13.79-3.89,5.72-1.61,11.43-3.23,17.16-4.82,4.93-1.37,7.09-.18,8.48,4.68.39,1.38.65,2.81,1.04,4.53Z"/>
</svg>