<svg version="1.2" xmlns="http://www.w3.org/2000/svg" viewBox="0 0 24 24" width="24" height="24">
	<title>battery-low-svg</title>
	<style>
		.s0 { opacity: .5;fill: #1c274c } 
		.s1 { fill: #1c274c } 
	</style>
	<path id="Layer" class="s0" d="m3.2 5.2c-1.2 1.1-1.2 3-1.2 6.8 0 3.8 0 5.7 1.2 6.8 1.1 1.2 3 1.2 6.8 1.2h1.5c3.8 0 5.7 0 6.8-1.2 1.2-1.1 1.2-3 1.2-6.8 0-3.8 0-5.7-1.2-6.8-1.1-1.2-3-1.2-6.8-1.2h-1.5c-3.8 0-5.7 0-6.8 1.2z"/>
	<path id="Layer" class="s1" d="m19.5 14q0-0.9 0-2 0-1.1 0-2h0.5c0.9 0 1.4 0 1.7 0.3 0.3 0.3 0.3 0.8 0.3 1.7 0 0.9 0 1.4-0.3 1.7-0.3 0.3-0.8 0.3-1.7 0.3z"/>
</svg>